<?xml version="1.0" encoding="UTF-8" standalone="no"?>
<svg width="134px" height="43px" viewBox="0 0 134 43" version="1.1" xmlns="http://www.w3.org/2000/svg" xmlns:xlink="http://www.w3.org/1999/xlink" xmlns:sketch="http://www.bohemiancoding.com/sketch/ns">
    <!-- Generator: Sketch 3.3 (11970) - http://www.bohemiancoding.com/sketch -->
    <title>Group</title>
    <desc>Created with Sketch.</desc>
    <defs></defs>
    <g id="Page-1" stroke="none" stroke-width="1" fill="none" fill-rule="evenodd" sketch:type="MSPage">
        <g id="TH-Logo" sketch:type="MSLayerGroup" transform="translate(-231.000000, -199.000000)" fill="#FFFFFF">
            <g id="Group-109" sketch:type="MSShapeGroup">
                <g id="Group" transform="translate(231.000000, 199.000000)">
                    <path d="M12.3462,8.4727 C11.8592,8.5157 11.4612,8.5707 11.1522,8.6377 C10.8442,8.7037 10.2672,8.7607 9.4292,8.8027 C8.8532,9.9967 8.2112,11.3687 7.5052,12.9137 C6.7972,14.4617 6.1232,15.9987 5.4842,17.5227 C4.8392,19.0477 4.3112,20.4757 3.8912,21.7977 C3.4712,23.1277 3.2612,24.2087 3.2612,25.0477 C3.2612,25.9797 3.6362,26.4427 4.3872,26.4427 C5.1392,26.4427 6.0782,25.9897 7.2052,25.0827 C8.3332,24.1747 9.3382,22.7067 10.2212,20.6747 L10.3562,20.6067 C10.4892,20.6067 10.6212,20.6747 10.7542,20.8067 L10.8862,20.9387 C10.8862,20.6747 10.8092,20.9047 10.6552,21.6337 C10.4992,22.3647 10.1782,23.2377 9.6932,24.2527 C9.2062,25.2717 8.5092,26.2197 7.6052,27.1057 C6.6982,27.9907 5.4712,28.4297 3.9232,28.4297 C3.5692,28.4297 3.1822,28.3757 2.7632,28.2647 C2.3432,28.1557 1.9682,27.9347 1.6362,27.6027 C1.3052,27.2707 1.0272,26.8387 0.8092,26.3097 C0.5872,25.7787 0.4762,25.0717 0.4762,24.1867 C0.4762,23.1277 0.6202,21.9207 0.9082,20.5737 C1.1942,19.2247 1.5462,17.8547 1.9682,16.4627 C2.3882,15.0697 2.8512,13.6887 3.3622,12.3197 C3.8682,10.9477 4.3662,9.6887 4.8542,8.5397 C3.4382,8.2727 2.4662,7.8867 1.9352,7.3777 C1.4042,6.8717 1.1402,6.4387 1.1402,6.0837 C1.1402,5.9097 1.1822,5.7307 1.2732,5.5557 C2.2442,6.1747 3.5472,6.4837 5.1852,6.4837 C5.6712,6.4837 6.0112,6.1747 6.2112,5.5557 C6.4102,4.9367 6.5532,4.4937 6.6432,4.2297 L7.1072,2.8347 C7.2382,2.4377 7.3602,2.0397 7.4722,1.6427 C7.5822,1.2467 7.6382,0.9127 7.6382,0.6477 C7.7252,0.6927 7.9692,0.7807 8.3672,0.9127 C8.7642,1.0477 9.1832,1.2467 9.6262,1.5107 C10.0702,1.7747 10.4672,2.1067 10.8212,2.5047 C11.1742,2.9027 11.3512,3.3677 11.3512,3.8987 C11.3512,4.1177 11.3272,4.4047 11.2842,4.7587 C11.2422,5.1137 11.1082,5.4657 10.8862,5.8197 C13.8912,5.2447 16.3472,4.8587 18.2472,4.6597 C20.1472,4.4597 21.9352,4.3607 23.6172,4.3607 C25.0752,4.3607 26.2572,4.4167 27.1642,4.5267 C28.0702,4.6367 28.6982,4.7807 29.0532,4.9557 C29.4962,5.1787 29.8942,5.4657 30.2492,5.8197 C30.5552,6.1277 30.8312,6.4947 31.0772,6.9127 C31.3212,7.3347 31.4422,7.8547 31.4422,8.4727 C31.4422,8.6497 31.3962,8.9927 31.3082,9.4997 C31.2202,10.0067 31.1112,10.2627 30.9772,10.2627 C30.8442,10.2627 30.5682,10.1627 30.1492,9.9637 C29.7272,9.7647 29.0202,9.5347 28.0272,9.2687 C27.0322,9.0007 25.6842,8.7707 23.9822,8.5707 C22.2802,8.3737 20.0802,8.2727 17.3852,8.2727 C15.8812,8.2727 14.2012,8.3387 12.3462,8.4727" id="Fill-2"></path>
                    <path d="M25.3403,20.6729 C25.5613,20.8059 25.6713,20.8959 25.6713,20.9369 C25.6713,21.0269 25.5283,21.4699 25.2403,22.2629 C24.9523,23.0609 24.5333,23.9109 23.9813,24.8159 C23.4283,25.7239 22.7633,26.5519 21.9923,27.3059 C21.2183,28.0559 20.3443,28.4299 19.3723,28.4299 C18.5323,28.4299 17.7493,28.0229 17.0193,27.2029 C16.2893,26.3899 15.9253,25.1819 15.9253,23.5909 C15.9253,22.3109 16.1133,20.9839 16.4873,19.6119 C16.8623,18.2429 17.2943,16.9589 17.7793,15.7669 C17.2943,15.8549 16.8203,15.9129 16.3563,15.9319 C15.8913,15.9539 15.4143,15.9869 14.9293,16.0319 L14.4333,16.0319 C14.2773,16.0319 14.0883,16.0089 13.8693,15.9659 C13.2483,16.9819 12.6863,17.9309 12.1783,18.8159 C11.6693,19.6999 11.2383,20.4519 10.8863,21.0699 C10.4433,21.8209 10.0453,22.5089 9.6923,23.1259 C9.6483,23.1259 9.5933,23.1039 9.5263,23.0609 C9.4593,23.0169 9.4043,22.9929 9.3603,22.9929 L9.2263,22.8599 C9.2723,22.7279 9.4043,22.3959 9.6263,21.8679 C9.8463,21.3379 10.1003,20.6969 10.3893,19.9429 C10.6753,19.1929 10.9853,18.3959 11.3183,17.5559 C11.6483,16.7159 11.9453,15.9429 12.2093,15.2359 C11.4583,14.7489 10.9523,14.1649 10.6863,13.4779 C10.4203,12.7939 10.2883,12.2079 10.2883,11.7219 C10.2883,11.2349 10.3313,10.8699 10.4203,10.6279 C10.5103,10.3849 10.7303,10.2629 11.0833,10.2629 C11.2603,10.2629 11.5383,10.2839 11.9123,10.3299 C12.2883,10.3729 12.6753,10.4399 13.0733,10.5279 C13.4713,10.6169 13.8463,10.7149 14.2013,10.8249 C14.5553,10.9369 14.7753,11.0359 14.8623,11.1239 C14.7333,11.4359 14.6413,11.6199 14.5983,11.6909 C14.5553,11.7549 14.4873,11.8339 14.3983,11.9189 C14.3983,12.0089 14.4983,12.0749 14.6963,12.1199 C14.8963,12.1629 15.1403,12.2079 15.4273,12.2509 C15.7133,12.2969 16.0333,12.3279 16.3893,12.3529 C16.7413,12.3739 17.0733,12.3839 17.3813,12.3839 L19.2393,12.3839 C19.1943,12.4749 19.2513,12.3839 19.4053,12.1199 C19.5603,11.8529 19.7483,11.5229 19.9683,11.1239 C20.1913,10.7269 20.4013,10.2939 20.6003,9.8299 C20.7993,9.3699 20.9393,8.9369 21.0303,8.5399 C21.0723,8.5399 21.2513,8.6379 21.5603,8.8369 C21.8693,9.0359 22.2133,9.2899 22.5873,9.5989 C22.9643,9.9089 23.3063,10.2509 23.6163,10.6279 C23.9233,11.0029 24.0793,11.3899 24.0793,11.7859 C24.0793,11.9639 24.0693,12.1299 24.0473,12.2859 C24.0243,12.4389 23.9893,12.6269 23.9473,12.8479 C23.5923,13.5569 23.1403,14.3959 22.5873,15.3679 C22.0353,16.3419 21.4933,17.3569 20.9633,18.4179 C20.4323,19.4779 19.9803,20.5509 19.6053,21.6339 C19.2293,22.7179 19.0403,23.7459 19.0403,24.7179 C19.0403,25.2049 19.0953,25.6149 19.2073,25.9439 C19.3193,26.2749 19.5473,26.4409 19.9013,26.4409 C20.5213,26.4409 21.2943,25.9869 22.2233,25.0829 C23.1523,24.1749 24.0573,22.7079 24.9443,20.6729 L25.0763,20.6059 C25.1613,20.6059 25.2513,20.6299 25.3403,20.6729" id="Fill-4"></path>
                    <path d="M28.7222,17.0908 C28.2792,17.5788 27.8812,18.2198 27.5262,19.0148 C28.4552,19.2368 29.2962,19.2248 30.0452,18.9818 C30.7982,18.7408 31.4142,18.3838 31.9032,17.9208 C32.3892,17.4558 32.7442,16.9588 32.9622,16.4288 C33.1882,15.8978 33.2512,15.5028 33.1622,15.2368 C33.1622,15.1048 32.6532,15.0378 31.6392,15.0378 C31.2852,15.0378 30.8202,15.2238 30.2462,15.5988 C29.6682,15.9758 29.1612,16.4758 28.7222,17.0908 M40.3232,20.6068 C40.5022,20.6498 40.5902,20.7398 40.5902,20.8738 C40.5902,20.9158 40.4102,21.3468 40.0592,22.1668 C39.7042,22.9828 39.1102,23.8658 38.2682,24.8178 C37.4272,25.7678 36.3232,26.6418 34.9532,27.4358 C33.5812,28.2298 31.9032,28.6278 29.9152,28.6278 C28.7222,28.6278 27.7392,28.3408 26.9642,27.7668 C26.1902,27.1928 25.5922,26.5088 25.1732,25.7118 C24.7532,24.9168 24.4542,24.0988 24.2782,23.2588 C24.1022,22.4208 24.0142,21.7338 24.0142,21.2028 C24.0142,19.8758 24.2692,18.5828 24.7762,17.3228 C25.2832,16.0638 25.9272,14.9368 26.7012,13.9428 C27.4722,12.9478 28.3462,12.1518 29.3182,11.5538 C30.2882,10.9588 31.2422,10.6598 32.1672,10.6598 C33.4512,10.6598 34.4352,10.8248 35.1202,11.1588 C35.8042,11.4898 36.3142,11.8778 36.6452,12.3198 C36.9752,12.7608 37.1732,13.2018 37.2402,13.6438 C37.3062,14.0868 37.3392,14.4178 37.3392,14.6378 C37.3392,15.8768 37.0972,16.8918 36.6122,17.6888 C36.1252,18.4858 35.5182,19.1138 34.7862,19.5788 C34.0582,20.0428 33.2722,20.3728 32.4342,20.5728 C31.5932,20.7708 30.8202,20.8738 30.1122,20.8738 C29.3632,20.8738 28.7432,20.7948 28.2572,20.6398 C27.7692,20.4858 27.3932,20.2978 27.1282,20.0748 C26.9082,20.8738 26.7992,21.5578 26.7992,22.1318 C26.7992,22.6608 26.8652,23.1828 26.9982,23.6898 C27.1282,24.1978 27.3632,24.6498 27.6932,25.0478 C28.0242,25.4458 28.4672,25.7678 29.0202,26.0108 C29.5722,26.2548 30.2672,26.3758 31.1082,26.3758 C32.5222,26.3758 33.7832,26.0988 34.8872,25.5458 C35.9922,24.9928 36.9202,24.3658 37.6732,23.6588 C38.4232,22.9508 38.9852,22.2978 39.3642,21.6998 C39.7382,21.1048 39.9252,20.7608 39.9252,20.6748 L39.9252,20.6068 L39.9932,20.6068 L40.1262,20.5378 C40.1682,20.5378 40.2012,20.5518 40.2232,20.5728 C40.2472,20.5948 40.2782,20.6068 40.3232,20.6068" id="Fill-6"></path>
                    <path d="M43.2397,17.0908 C42.7967,17.5788 42.3987,18.2198 42.0477,19.0148 C42.9757,19.2368 43.8137,19.2248 44.5667,18.9818 C45.3167,18.7408 45.9357,18.3838 46.4247,17.9208 C46.9107,17.4558 47.2617,16.9588 47.4837,16.4288 C47.7057,15.8978 47.7717,15.5028 47.6837,15.2368 C47.6837,15.1048 47.1747,15.0378 46.1577,15.0378 C45.8047,15.0378 45.3407,15.2238 44.7667,15.5988 C44.1897,15.9758 43.6827,16.4758 43.2397,17.0908 M54.8437,20.6068 C55.0197,20.6498 55.1087,20.7398 55.1087,20.8738 C55.1087,20.9158 54.9317,21.3468 54.5777,22.1668 C54.2257,22.9828 53.6307,23.8658 52.7897,24.8178 C51.9487,25.7678 50.8437,26.6418 49.4717,27.4358 C48.1027,28.2298 46.4247,28.6278 44.4367,28.6278 C43.2397,28.6278 42.2567,28.3408 41.4827,27.7668 C40.7087,27.1928 40.1137,26.5088 39.6917,25.7118 C39.2727,24.9168 38.9747,24.0988 38.7997,23.2588 C38.6237,22.4208 38.5327,21.7338 38.5327,21.2028 C38.5327,19.8758 38.7877,18.5828 39.2947,17.3228 C39.8037,16.0638 40.4447,14.9368 41.2187,13.9428 C41.9937,12.9478 42.8637,12.1518 43.8387,11.5538 C44.8087,10.9588 45.7597,10.6598 46.6877,10.6598 C47.9687,10.6598 48.9527,10.8248 49.6377,11.1588 C50.3257,11.4898 50.8317,11.8778 51.1657,12.3198 C51.4967,12.7608 51.6937,13.2018 51.7607,13.6438 C51.8277,14.0868 51.8607,14.4178 51.8607,14.6378 C51.8607,15.8768 51.6177,16.8918 51.1327,17.6888 C50.6457,18.4858 50.0367,19.1138 49.3077,19.5788 C48.5797,20.0428 47.7937,20.3728 46.9557,20.5728 C46.1147,20.7708 45.3407,20.8738 44.6337,20.8738 C43.8817,20.8738 43.2637,20.7948 42.7757,20.6398 C42.2907,20.4858 41.9137,20.2978 41.6497,20.0748 C41.4277,20.8738 41.3187,21.5578 41.3187,22.1318 C41.3187,22.6608 41.3857,23.1828 41.5197,23.6898 C41.6497,24.1978 41.8807,24.6498 42.2117,25.0478 C42.5457,25.4458 42.9857,25.7678 43.5417,26.0108 C44.0907,26.2548 44.7887,26.3758 45.6297,26.3758 C47.0437,26.3758 48.3007,26.0988 49.4087,25.5458 C50.5107,24.9928 51.4417,24.3658 52.1917,23.6588 C52.9447,22.9508 53.5057,22.2978 53.8857,21.6998 C54.2597,21.1048 54.4467,20.7608 54.4467,20.6748 L54.4467,20.6068 L54.5127,20.6068 L54.6447,20.5378 C54.6897,20.5378 54.7227,20.5518 54.7447,20.5728 C54.7687,20.5948 54.7997,20.6068 54.8437,20.6068" id="Fill-8"></path>
                    <path d="M65.8208,15.501 C65.2908,16.342 64.6838,17.313 63.9978,18.418 C63.3118,19.523 62.6588,20.63 62.0398,21.735 C61.4208,22.841 60.8598,23.855 60.3488,24.784 C59.8418,25.712 59.5198,26.419 59.3898,26.905 C59.3898,26.864 59.3448,26.917 59.2568,27.071 C59.1678,27.227 59.0348,27.403 58.8588,27.601 C58.6788,27.8 58.4698,27.989 58.2268,28.165 C57.9848,28.343 57.7088,28.43 57.3998,28.43 C57.2218,28.43 56.9898,28.421 56.7038,28.399 C56.4158,28.375 56.1388,28.265 55.8758,28.065 C55.6108,27.866 55.3778,27.56 55.1758,27.136 C54.9798,26.72 54.8798,26.087 54.8798,25.247 C54.8798,24.276 55.0128,23.138 55.2768,21.833 C55.5428,20.53 55.8758,19.17 56.2718,17.753 C56.6708,16.342 57.1228,14.927 57.6328,13.513 C58.1388,12.097 58.6268,10.771 59.0898,9.532 C59.5538,8.297 59.9728,7.212 60.3488,6.284 C60.7258,5.356 61.0018,4.671 61.1808,4.229 L61.6418,2.837 C61.7758,2.438 61.8968,2.04 62.0078,1.643 C62.1188,1.245 62.1738,0.913 62.1738,0.647 C62.2618,0.694 62.5048,0.79 62.9038,0.948 C63.3008,1.101 63.7218,1.31 64.1648,1.575 C64.6028,1.841 65.0028,2.163 65.3578,2.538 C65.7098,2.913 65.8868,3.367 65.8868,3.897 C65.8868,4.472 65.7768,5.003 65.5558,5.489 C65.3338,5.932 64.9918,6.615 64.5278,7.544 C64.0638,8.474 63.5428,9.532 62.9698,10.727 C62.3928,11.919 61.8088,13.192 61.2118,14.538 C60.6158,15.888 60.0628,17.215 59.5538,18.517 C59.0478,19.821 58.6268,21.039 58.2948,22.165 C57.9638,23.293 57.7988,24.231 57.7988,24.984 C57.8418,24.984 57.8638,24.961 57.8638,24.918 C59.1898,22.841 60.4498,20.973 61.6418,19.314 C62.8368,17.657 63.8748,16.231 64.7598,15.036 C65.8208,13.622 66.7918,12.384 67.6768,11.323 C67.8978,10.97 68.1078,10.638 68.3078,10.329 C68.5048,10.022 68.7378,9.425 69.0028,8.541 C69.0448,8.541 69.2248,8.638 69.5338,8.837 C69.8418,9.035 70.1868,9.29 70.5618,9.599 C70.9368,9.909 71.2788,10.263 71.5888,10.661 C71.8988,11.06 72.0538,11.436 72.0538,11.786 L72.0538,12.353 C72.0538,12.552 72.0078,12.716 71.9198,12.848 C71.5648,13.557 71.1128,14.396 70.5618,15.368 C70.0078,16.342 69.4668,17.356 68.9358,18.418 C68.4058,19.48 67.9528,20.551 67.5778,21.634 C67.2038,22.719 67.0148,23.746 67.0148,24.718 C67.0148,25.205 67.0698,25.615 67.1798,25.944 C67.2888,26.276 67.5438,26.44 67.9408,26.44 C68.5178,26.44 69.2788,25.987 70.2288,25.083 C71.1788,24.175 72.0738,22.708 72.9148,20.673 L73.0488,20.605 C73.2248,20.605 73.3798,20.673 73.5108,20.806 L73.6438,20.937 C73.6438,21.027 73.5008,21.468 73.2128,22.265 C72.9248,23.061 72.5178,23.911 71.9868,24.815 C71.4568,25.724 70.8048,26.552 70.0298,27.306 C69.2558,28.056 68.3828,28.43 67.4128,28.43 C66.5278,28.43 65.7218,28.022 64.9918,27.203 C64.2628,26.388 63.8978,25.182 63.8978,23.591 C63.8978,22.31 64.0978,20.948 64.4958,19.512 C64.8928,18.076 65.3338,16.738 65.8208,15.501" id="Fill-10"></path>
                    <path d="M81.1367,23.7217 C81.5337,23.1927 81.8877,22.5737 82.1977,21.8677 C82.5057,21.1607 82.7387,20.4287 82.8947,19.6767 C83.0467,18.9257 83.0927,18.1787 83.0257,17.4227 C82.9587,16.6717 82.7717,15.9657 82.4647,15.3017 C82.1087,15.3017 81.7767,15.4797 81.4677,15.8307 C81.1587,16.1867 80.8807,16.6177 80.6397,17.1237 C80.3947,17.6337 80.1977,18.1857 80.0417,18.7847 C79.8877,19.3797 79.8087,19.9427 79.8087,20.4737 C79.8087,20.9597 79.8977,21.5787 80.0747,22.3287 C80.2517,23.0827 80.6067,23.5477 81.1367,23.7217 M77.0917,26.7727 C77.3137,26.7727 77.6987,26.6727 78.2507,26.4757 C78.8057,26.2767 79.2807,25.9107 79.6777,25.3817 C78.5277,24.6737 77.7657,23.7007 77.3897,22.4627 C77.0127,21.2277 76.8277,20.0087 76.8277,18.8157 C76.8277,18.5517 76.8367,18.2747 76.8597,17.9877 C76.8827,17.7007 76.9127,17.4227 76.9577,17.1577 C76.2067,17.9527 75.5767,18.8607 75.0707,19.8757 C74.5607,20.8957 74.3047,22.0007 74.3047,23.1927 C74.3047,24.3867 74.5487,25.2597 75.0367,25.8137 C75.5227,26.3647 76.2067,26.6847 77.0917,26.7727 M82.2647,11.0597 C83.5907,11.1027 84.5727,11.6767 85.2147,12.7827 C85.8557,13.8857 86.1767,15.1477 86.1767,16.5617 C86.1767,18.1537 85.8337,19.6697 85.1487,21.1047 C84.4617,22.5407 83.7667,23.7007 83.0597,24.5847 C83.2797,24.6297 83.4787,24.6627 83.6567,24.6847 C83.8297,24.7077 84.0097,24.7177 84.1857,24.7177 C85.2027,24.7177 86.0757,24.5517 86.8047,24.2197 C87.5327,23.8897 87.9677,23.7217 88.0987,23.7217 L88.0317,23.7217 C88.0747,23.7687 88.1417,23.8127 88.2317,23.8557 C88.4077,24.0337 88.4957,24.2087 88.4957,24.3867 L88.4287,24.3217 C88.3407,24.3217 88.1737,24.4307 87.9327,24.6517 C87.6887,24.8717 87.3477,25.1247 86.9057,25.4127 C86.4617,25.7007 85.9427,25.9557 85.3467,26.1757 C84.7497,26.3997 84.0757,26.5067 83.3237,26.5067 C83.0137,26.5067 82.6937,26.4857 82.3627,26.4407 C82.0327,26.3997 81.6877,26.3077 81.3357,26.1757 C81.1137,26.4857 80.5947,26.9387 79.7767,27.5357 C78.9587,28.1317 77.9957,28.4297 76.8947,28.4297 C75.9637,28.4297 75.1797,28.2297 74.5387,27.8347 C73.8977,27.4367 73.3777,26.9287 72.9807,26.3077 C72.5827,25.6927 72.2827,25.0277 72.0847,24.3217 C71.8857,23.6147 71.7857,22.9257 71.7857,22.2647 C71.7857,20.5377 72.0737,19.0037 72.6497,17.6577 C73.2217,16.3077 73.8757,15.1477 74.6047,14.1727 C75.3337,13.2017 76.0537,12.4387 76.7607,11.8887 C77.4687,11.3347 77.9537,11.0137 78.2197,10.9267 C78.3067,10.9267 78.4277,10.9837 78.5817,11.0927 C78.7387,11.2017 78.9917,11.5457 79.3477,12.1197 C79.7447,11.8997 80.1517,11.6557 80.5737,11.3897 C80.9917,11.1247 81.5567,11.0137 82.2647,11.0597" id="Fill-12"></path>
                    <path d="M105.7373,20.6729 C105.9093,20.8059 106.0003,20.8959 106.0003,20.9369 C106.0003,21.0269 105.8583,21.4579 105.5703,22.2309 C105.2813,23.0049 104.8713,23.8559 104.3433,24.7839 C103.8123,25.7119 103.1603,26.5519 102.3853,27.3059 C101.6113,28.0559 100.7403,28.4299 99.7693,28.4299 C99.0613,28.4299 98.3643,28.1339 97.6793,27.5359 C96.9953,26.9389 96.5393,25.8699 96.3193,24.3209 C96.0543,24.7609 95.7333,25.2279 95.3593,25.7119 C94.9823,26.1999 94.5723,26.6409 94.1333,27.0379 C93.6893,27.4369 93.2033,27.7669 92.6723,28.0319 C92.1413,28.2979 91.5893,28.4299 91.0153,28.4299 C90.1753,28.4299 89.3813,28.0229 88.6303,27.2029 C87.8763,26.3899 87.5023,25.1819 87.5023,23.5909 C87.5023,22.5289 87.6463,21.4149 87.9303,20.2429 C88.2193,19.0719 88.5623,17.9439 88.9603,16.8599 C89.3573,15.7779 89.7553,14.8059 90.1543,13.9419 C90.5503,13.0799 90.8603,12.4089 91.0823,11.9189 C91.2583,11.5689 91.5473,11.0359 91.9443,10.3299 C92.3413,9.6239 92.6053,9.0479 92.7393,8.6049 C92.7843,8.6049 92.9593,8.7039 93.2703,8.9049 C93.5803,9.1029 93.9113,9.3449 94.2653,9.6339 C94.6183,9.9209 94.9373,10.2509 95.2243,10.6279 C95.5133,11.0029 95.6583,11.3899 95.6583,11.7859 C95.6583,11.9189 95.6343,12.1759 95.5913,12.5499 C95.5453,12.9269 95.4143,13.2239 95.1913,13.4459 C94.8383,14.1969 94.3963,15.0359 93.8673,15.9659 C93.3363,16.8919 92.8273,17.8559 92.3413,18.8489 C91.8543,19.8469 91.4473,20.8489 91.1153,21.8679 C90.7843,22.8839 90.6183,23.8329 90.6183,24.7179 C90.6183,25.2939 90.6953,25.7569 90.8473,26.1099 C91.0043,26.4659 91.3243,26.6409 91.8103,26.6409 C92.4293,26.6409 93.1703,26.2869 94.0323,25.5789 C94.8943,24.8719 95.7013,23.6339 96.4533,21.8679 C96.6303,20.5849 96.9193,19.3019 97.3163,18.0209 C97.7113,16.7389 98.1213,15.5989 98.5433,14.6069 C98.9623,13.6109 99.3473,12.8059 99.7023,12.1849 C100.0543,11.5689 100.2763,11.2569 100.3643,11.2569 C100.6743,11.2569 101.0383,11.3349 101.4603,11.4889 C101.8793,11.6449 102.3093,11.8339 102.7533,12.0529 C103.2393,12.2749 103.7463,12.5409 104.2763,12.8479 C103.9663,13.5569 103.5363,14.3959 102.9833,15.3679 C102.4303,16.3419 101.8873,17.3679 101.3593,18.4499 C100.8293,19.5359 100.3643,20.6179 99.9663,21.6999 C99.5683,22.7839 99.3693,23.8129 99.3693,24.7839 C99.3693,25.2709 99.4233,25.6669 99.5353,25.9779 C99.6473,26.2869 99.9033,26.4409 100.2983,26.4409 C100.8743,26.4409 101.6333,25.9869 102.5863,25.0829 C103.5363,24.1749 104.4523,22.7079 105.3393,20.6729 L105.4693,20.6059 C105.5573,20.6059 105.6453,20.6299 105.7373,20.6729" id="Fill-14"></path>
                    <path d="M108.8506,26.3076 C109.3786,26.3076 109.8976,26.2196 110.4086,26.0436 C110.9146,25.8706 111.3916,25.6156 111.8336,25.2806 C112.2746,24.9496 112.6296,24.5416 112.8976,24.0556 C113.1616,23.5686 113.2906,23.0376 113.2906,22.4626 C113.2906,21.9346 113.1916,21.3136 112.9956,20.6056 C112.7966,19.8996 112.5636,19.1586 112.2986,18.3836 C112.0326,17.6116 111.7766,16.8606 111.5376,16.1296 C111.2906,15.4006 111.1066,14.7506 110.9726,14.1726 C110.2196,15.2806 109.4246,16.4196 108.5866,17.5906 C107.7466,18.7606 106.9936,19.8106 106.3316,20.7396 C107.2146,20.5186 107.9306,20.4076 108.4866,20.4076 C109.0386,20.4076 109.2906,20.3856 109.2486,20.3406 C109.2906,20.3406 109.3356,20.3646 109.3786,20.4076 C109.4706,20.4986 109.5126,20.6296 109.5126,20.8056 C109.5126,20.9366 109.2826,21.0496 108.8176,21.1366 C108.3536,21.2256 107.8306,21.3586 107.2606,21.5366 C106.6836,21.7106 106.1646,21.9346 105.7036,22.1986 C105.2366,22.4626 105.0046,22.8596 105.0046,23.3906 C105.0046,23.6576 105.1026,23.9536 105.3026,24.2866 C105.4996,24.6186 105.7676,24.9266 106.0976,25.2136 C106.4316,25.5026 106.8386,25.7566 107.3276,25.9776 C107.8126,26.2006 108.3196,26.3076 108.8506,26.3076 M115.0826,11.3896 C115.1276,11.6106 115.1376,11.8336 115.1166,12.0526 C115.0946,12.2746 115.0616,12.4286 115.0156,12.5166 C115.0616,13.5786 115.3036,14.9056 115.7466,16.4946 C116.1876,18.0866 116.5216,19.8996 116.7396,21.9346 C116.8286,23.0376 116.6636,24.0106 116.2426,24.8516 C115.8236,25.6926 115.2486,26.3996 114.5216,26.9716 C113.7916,27.5456 112.9636,27.9896 112.0326,28.2976 C111.1066,28.6076 110.1996,28.7606 109.3156,28.7606 C108.2986,28.7606 107.4236,28.5986 106.6966,28.2656 C105.9666,27.9346 105.3576,27.5126 104.8716,27.0046 C104.3856,26.4966 104.0216,25.9446 103.7796,25.3466 C103.5366,24.7506 103.4116,24.1886 103.4116,23.6576 C103.4116,22.9936 103.5786,22.4086 103.9096,21.8996 C104.2436,21.3916 104.7166,21.0946 105.3356,21.0026 C105.7346,20.3406 106.1766,19.5676 106.6626,18.6846 C107.1486,17.7996 107.6466,16.9036 108.1536,15.9986 C108.6636,15.0926 109.1396,14.2206 109.5796,13.3796 C110.0196,12.5406 110.4166,11.8336 110.7726,11.2566 C110.8606,11.0806 110.9606,10.8366 111.0736,10.5286 C111.1816,10.2196 111.2826,9.9206 111.3706,9.6336 C111.4586,9.3446 111.5716,9.0906 111.7016,8.8706 C111.8336,8.6516 111.9656,8.5396 112.0986,8.5396 C112.5846,8.8506 113.0486,9.1586 113.4926,9.4656 C113.8436,9.7326 114.1746,10.0316 114.4856,10.3616 C114.7936,10.6926 114.9956,11.0366 115.0826,11.3896" id="Fill-16"></path>
                    <path d="M121.9121,17.0908 C121.4691,17.5788 121.0711,18.2198 120.7201,19.0148 C121.6481,19.2368 122.4851,19.2248 123.2391,18.9818 C123.9881,18.7408 124.6071,18.3838 125.0971,17.9208 C125.5821,17.4558 125.9331,16.9588 126.1561,16.4288 C126.3771,15.8978 126.4431,15.5028 126.3551,15.2368 C126.3551,15.1048 125.8461,15.0378 124.8291,15.0378 C124.4761,15.0378 124.0131,15.2238 123.4381,15.5988 C122.8621,15.9758 122.3551,16.4758 121.9121,17.0908 M133.5161,20.6068 C133.6921,20.6498 133.7831,20.7398 133.7831,20.8738 C133.7831,20.9158 133.6041,21.3468 133.2491,22.1668 C132.8971,22.9828 132.3021,23.8658 131.4621,24.8178 C130.6211,25.7678 129.5161,26.6418 128.1431,27.4358 C126.7741,28.2298 125.0971,28.6278 123.1071,28.6278 C121.9121,28.6278 120.9291,28.3408 120.1541,27.7668 C119.3811,27.1928 118.7861,26.5088 118.3641,25.7118 C117.9451,24.9168 117.6471,24.0998 117.4721,23.2608 C117.2951,22.4208 117.2071,21.7338 117.2071,21.2028 C117.2071,19.8758 117.4601,18.5828 117.9661,17.3228 C118.4761,16.0638 119.1161,14.9368 119.8911,13.9428 C120.6641,12.9478 121.5351,12.1518 122.5101,11.5538 C123.4811,10.9588 124.4321,10.6598 125.3601,10.6598 C126.6411,10.6598 127.6251,10.8268 128.3101,11.1588 C128.9971,11.4898 129.5041,11.8778 129.8371,12.3198 C130.1681,12.7608 130.3651,13.2018 130.4331,13.6438 C130.5001,14.0868 130.5331,14.4178 130.5331,14.6378 C130.5331,15.8778 130.2901,16.8918 129.8041,17.6908 C129.3181,18.4858 128.7091,19.1148 127.9791,19.5788 C127.2511,20.0428 126.4651,20.3728 125.6281,20.5728 C124.7871,20.7708 124.0131,20.8738 123.3061,20.8738 C122.5531,20.8738 121.9361,20.7948 121.4481,20.6398 C120.9621,20.4858 120.5851,20.2978 120.3221,20.0748 C120.1001,20.8738 119.9901,21.5578 119.9901,22.1318 C119.9901,22.6608 120.0581,23.1828 120.1911,23.6898 C120.3221,24.1978 120.5521,24.6498 120.8831,25.0478 C121.2171,25.4458 121.6571,25.7678 122.2131,26.0108 C122.7631,26.2548 123.4601,26.3758 124.3011,26.3758 C125.7161,26.3758 126.9721,26.0988 128.0801,25.5458 C129.1851,24.9928 130.1141,24.3658 130.8631,23.6588 C131.6161,22.9508 132.1781,22.2978 132.5581,21.6998 C132.9311,21.1048 133.1191,20.7608 133.1191,20.6748 L133.1191,20.6068 L133.1851,20.6068 L133.3151,20.5398 C133.3611,20.5398 133.3941,20.5518 133.4161,20.5728 C133.4401,20.5948 133.4721,20.6068 133.5161,20.6068" id="Fill-18"></path>
                    <path d="M49.8638,41.0752 C49.8998,41.1022 49.9458,41.1412 49.9998,41.1902 C50.0538,41.2392 50.1148,41.2882 50.1878,41.3372 C50.2918,41.4052 50.3978,41.4602 50.5008,41.4992 C50.6038,41.5402 50.7138,41.5572 50.8288,41.5572 C50.9318,41.5572 51.0228,41.5462 51.0928,41.5242 C51.1658,41.4992 51.2198,41.4682 51.2628,41.4292 C51.3048,41.3892 51.3328,41.3432 51.3508,41.2922 C51.3688,41.2392 51.3788,41.1842 51.3788,41.1262 C51.3788,41.0632 51.3538,41.0052 51.3048,40.9542 C51.2578,40.9032 51.1958,40.8602 51.1258,40.8192 C51.0558,40.7802 50.9798,40.7472 50.9048,40.7202 C50.8288,40.6902 50.7618,40.6672 50.7068,40.6492 C50.4588,40.5612 50.2398,40.4682 50.0538,40.3662 C49.8668,40.2682 49.7118,40.1552 49.5878,40.0322 C49.4628,39.9092 49.3688,39.7722 49.3078,39.6262 C49.2438,39.4772 49.2138,39.3132 49.2138,39.1322 C49.2138,38.9362 49.2538,38.7612 49.3298,38.6062 C49.4078,38.4482 49.5198,38.3132 49.6628,38.2022 C49.8058,38.0912 49.9818,38.0042 50.1848,37.9422 C50.3848,37.8822 50.6128,37.8502 50.8648,37.8502 C51.0528,37.8502 51.2358,37.8742 51.4088,37.9152 C51.5808,37.9582 51.7518,38.0242 51.9188,38.1192 C51.9878,38.1592 52.0538,38.2042 52.1188,38.2482 C52.1818,38.2922 52.2368,38.3332 52.2858,38.3762 C52.3318,38.4172 52.3708,38.4562 52.3978,38.4952 C52.4258,38.5322 52.4398,38.5632 52.4398,38.5912 C52.4398,38.6182 52.4338,38.6432 52.4198,38.6652 C52.4068,38.6882 52.3858,38.7142 52.3588,38.7432 L51.8848,39.2512 C51.8478,39.2842 51.8118,39.3042 51.7788,39.3042 C51.7488,39.3042 51.7238,39.2922 51.6998,39.2782 C51.6758,39.2612 51.6478,39.2392 51.6208,39.2162 L51.5908,39.1902 C51.5508,39.1552 51.5058,39.1202 51.4538,39.0812 C51.4018,39.0442 51.3478,39.0112 51.2908,38.9792 C51.2318,38.9502 51.1718,38.9252 51.1068,38.9052 C51.0438,38.8872 50.9768,38.8762 50.9108,38.8762 C50.8438,38.8762 50.7768,38.8822 50.7188,38.8932 C50.6588,38.9052 50.6038,38.9232 50.5578,38.9482 C50.5118,38.9732 50.4788,39.0052 50.4518,39.0462 C50.4258,39.0872 50.4098,39.1362 50.4098,39.1922 C50.4098,39.2512 50.4258,39.3042 50.4558,39.3452 C50.4828,39.3882 50.5278,39.4272 50.5858,39.4622 C50.6428,39.4992 50.7168,39.5322 50.8008,39.5652 C50.8858,39.5962 50.9858,39.6322 51.1008,39.6692 C51.3208,39.7432 51.5228,39.8172 51.7088,39.8972 C51.8938,39.9772 52.0538,40.0712 52.1878,40.1792 C52.3218,40.2882 52.4278,40.4192 52.5048,40.5712 C52.5798,40.7212 52.6158,40.9032 52.6158,41.1202 C52.6158,41.3482 52.5708,41.5542 52.4758,41.7412 C52.3858,41.9272 52.2558,42.0832 52.0938,42.2142 C51.9298,42.3452 51.7398,42.4462 51.5198,42.5182 C51.3018,42.5892 51.0648,42.6262 50.8098,42.6262 C50.5738,42.6262 50.3408,42.5832 50.1088,42.4972 C49.8788,42.4132 49.6658,42.2982 49.4658,42.1552 C49.3848,42.0952 49.3138,42.0342 49.2568,41.9752 C49.1978,41.9172 49.1528,41.8722 49.1198,41.8372 L49.1098,41.8272 C49.1098,41.8232 49.1068,41.8192 49.1038,41.8192 L49.0978,41.8152 C49.0978,41.8092 49.0948,41.8072 49.0928,41.8072 C49.0898,41.8072 49.0898,41.8042 49.0868,41.8022 C49.0378,41.7512 49.0158,41.7102 49.0158,41.6772 C49.0158,41.6432 49.0378,41.6022 49.0868,41.5572 L49.6238,41.0462 C49.6688,41.0142 49.7028,40.9992 49.7298,40.9992 C49.7478,40.9992 49.7688,41.0052 49.7908,41.0162 C49.8088,41.0322 49.8368,41.0502 49.8638,41.0752" id="Fill-20"></path>
                    <path d="M54.353,38.0869 C54.353,38.0449 54.365,38.0129 54.392,37.9869 C54.422,37.9639 54.456,37.9499 54.498,37.9499 L57.843,37.9499 C57.879,37.9499 57.913,37.9609 57.94,37.9839 C57.97,38.0069 57.986,38.0399 57.992,38.0869 L57.992,38.8579 C57.992,38.8959 57.98,38.9309 57.952,38.9659 C57.925,38.9969 57.888,39.0169 57.843,39.0169 L56.769,39.0169 L56.769,42.4189 C56.769,42.4579 56.756,42.4909 56.73,42.5229 C56.702,42.5499 56.668,42.5659 56.624,42.5659 L55.712,42.5659 C55.676,42.5659 55.646,42.5539 55.613,42.5239 C55.582,42.4949 55.567,42.4619 55.567,42.4189 L55.567,39.0169 L54.498,39.0169 C54.456,39.0169 54.422,39.0029 54.392,38.9759 C54.365,38.9499 54.353,38.9109 54.353,38.8579 L54.353,38.0869 Z" id="Fill-22"></path>
                    <path d="M61.1733,40.7256 C61.1733,40.8776 61.1943,41.0066 61.2363,41.1166 C61.2783,41.2236 61.3363,41.3076 61.4063,41.3756 C61.4773,41.4466 61.5563,41.4936 61.6503,41.5246 C61.7403,41.5556 61.8373,41.5716 61.9383,41.5716 C62.0413,41.5716 62.1383,41.5516 62.2323,41.5186 C62.3223,41.4816 62.4053,41.4266 62.4753,41.3546 C62.5453,41.2846 62.6003,41.1946 62.6393,41.0906 C62.6783,40.9836 62.6993,40.8626 62.6993,40.7256 L62.6993,38.0876 C62.6993,38.0496 62.7113,38.0186 62.7383,37.9906 C62.7633,37.9636 62.8003,37.9506 62.8423,37.9506 L63.7493,37.9506 C63.7983,37.9506 63.8343,37.9636 63.8623,37.9936 C63.8903,38.0216 63.9023,38.0526 63.9023,38.0876 L63.9023,40.7076 C63.9023,41.0696 63.8503,41.3736 63.7433,41.6206 C63.6353,41.8686 63.4923,42.0656 63.3133,42.2156 C63.1313,42.3666 62.9243,42.4736 62.6853,42.5396 C62.4473,42.6046 62.1983,42.6396 61.9383,42.6396 C61.6773,42.6396 61.4283,42.6046 61.1883,42.5366 C60.9513,42.4676 60.7413,42.3586 60.5633,42.2056 C60.3803,42.0556 60.2373,41.8546 60.1323,41.6086 C60.0263,41.3646 59.9713,41.0636 59.9713,40.7076 L59.9713,38.0876 C59.9713,38.0526 59.9833,38.0216 60.0073,37.9936 C60.0313,37.9636 60.0593,37.9506 60.0963,37.9506 L61.0253,37.9506 C61.0553,37.9506 61.0883,37.9636 61.1213,37.9896 C61.1573,38.0156 61.1733,38.0476 61.1733,38.0876 L61.1733,40.7256 Z" id="Fill-24"></path>
                    <path d="M67.2007,39.0615 L67.2007,41.4545 L67.4627,41.4545 C67.5117,41.4545 67.5557,41.4525 67.6017,41.4485 C67.6467,41.4465 67.6927,41.4405 67.7377,41.4365 C67.8937,41.4245 68.0387,41.3875 68.1747,41.3235 C68.3087,41.2585 68.4267,41.1785 68.5277,41.0755 C68.6267,40.9735 68.7057,40.8545 68.7637,40.7135 C68.8197,40.5735 68.8497,40.4225 68.8497,40.2605 C68.8497,40.0845 68.8167,39.9245 68.7487,39.7805 C68.6847,39.6335 68.5967,39.5065 68.4847,39.3995 C68.3727,39.2915 68.2417,39.2115 68.0897,39.1515 C67.9417,39.0925 67.7807,39.0615 67.6107,39.0615 L67.2007,39.0615 Z M70.0447,40.2625 C70.0447,40.4815 70.0177,40.6905 69.9597,40.8895 C69.9057,41.0865 69.8267,41.2725 69.7197,41.4405 C69.6167,41.6125 69.4947,41.7685 69.3507,41.9055 C69.2067,42.0455 69.0457,42.1655 68.8707,42.2605 C68.6977,42.3585 68.5057,42.4345 68.3057,42.4855 C68.1027,42.5405 67.8897,42.5655 67.6747,42.5655 L66.1417,42.5655 C66.1047,42.5655 66.0717,42.5575 66.0417,42.5405 C66.0117,42.5245 65.9997,42.4895 65.9997,42.4345 L65.9997,38.0935 C65.9997,38.0495 66.0117,38.0155 66.0357,37.9875 C66.0567,37.9605 66.0937,37.9475 66.1417,37.9475 L67.6747,37.9475 C67.8897,37.9475 68.0997,37.9735 68.3027,38.0275 C68.5057,38.0825 68.6947,38.1575 68.8677,38.2585 C69.0427,38.3585 69.2037,38.4775 69.3507,38.6165 C69.4927,38.7525 69.6167,38.9115 69.7197,39.0815 C69.8247,39.2545 69.9027,39.4385 69.9597,39.6395 C70.0177,39.8345 70.0447,40.0455 70.0447,40.2625 L70.0447,40.2625 Z" id="Fill-26"></path>
                    <path d="M72.1113,38.0879 C72.1113,38.0499 72.1213,38.0189 72.1453,37.9899 C72.1673,37.9639 72.2033,37.9499 72.2493,37.9499 L73.1623,37.9499 C73.1923,37.9499 73.2263,37.9639 73.2623,37.9869 C73.2963,38.0129 73.3143,38.0449 73.3143,38.0879 L73.3143,42.4289 C73.3143,42.5209 73.2623,42.5659 73.1623,42.5659 L72.2493,42.5659 C72.1573,42.5659 72.1113,42.5209 72.1113,42.4289 L72.1113,38.0879 Z" id="Fill-28"></path>
                    <path d="M76.5469,40.2607 C76.5469,40.4307 76.5769,40.5927 76.6349,40.7407 C76.6929,40.8897 76.7749,41.0207 76.8769,41.1317 C76.9839,41.2407 77.1059,41.3307 77.2479,41.3937 C77.3909,41.4557 77.5489,41.4877 77.7219,41.4877 C77.8919,41.4877 78.0499,41.4557 78.1949,41.3937 C78.3379,41.3307 78.4619,41.2407 78.5659,41.1317 C78.6719,41.0207 78.7539,40.8897 78.8119,40.7407 C78.8679,40.5927 78.8959,40.4307 78.8959,40.2607 C78.8959,40.0907 78.8679,39.9307 78.8119,39.7807 C78.7539,39.6297 78.6719,39.4987 78.5659,39.3877 C78.4619,39.2747 78.3379,39.1867 78.1949,39.1237 C78.0499,39.0577 77.8919,39.0267 77.7219,39.0267 C77.5489,39.0267 77.3909,39.0577 77.2479,39.1237 C77.1059,39.1867 76.9839,39.2747 76.8769,39.3877 C76.7749,39.4987 76.6929,39.6297 76.6349,39.7807 C76.5769,39.9307 76.5469,40.0907 76.5469,40.2607 M75.3449,40.2627 C75.3449,40.0417 75.3719,39.8327 75.4299,39.6297 C75.4849,39.4287 75.5639,39.2377 75.6699,39.0617 C75.7729,38.8817 75.8949,38.7237 76.0399,38.5767 C76.1829,38.4347 76.3439,38.3097 76.5199,38.2057 C76.6949,38.1027 76.8869,38.0247 77.0869,37.9667 C77.2899,37.9107 77.4999,37.8817 77.7219,37.8817 C77.9399,37.8817 78.1499,37.9107 78.3529,37.9667 C78.5569,38.0247 78.7439,38.1027 78.9199,38.2057 C79.0969,38.3097 79.2569,38.4347 79.4019,38.5767 C79.5489,38.7237 79.6729,38.8817 79.7759,39.0617 C79.8759,39.2377 79.9579,39.4287 80.0169,39.6297 C80.0709,39.8327 80.1019,40.0417 80.1019,40.2627 C80.1019,40.4817 80.0709,40.6927 80.0169,40.8957 C79.9579,41.0987 79.8759,41.2857 79.7759,41.4597 C79.6729,41.6377 79.5489,41.7957 79.4019,41.9407 C79.2569,42.0827 79.0969,42.2057 78.9199,42.3097 C78.7439,42.4147 78.5569,42.4947 78.3529,42.5497 C78.1499,42.6067 77.9399,42.6357 77.7219,42.6357 C77.4999,42.6357 77.2899,42.6067 77.0869,42.5497 C76.8869,42.4947 76.6949,42.4147 76.5199,42.3097 C76.3439,42.2057 76.1829,42.0827 76.0399,41.9407 C75.8949,41.7957 75.7729,41.6377 75.6699,41.4597 C75.5639,41.2857 75.4849,41.0987 75.4299,40.8957 C75.3719,40.6927 75.3449,40.4817 75.3449,40.2627" id="Fill-30"></path>
                    <path d="M82.4902,41.0752 C82.5262,41.1022 82.5722,41.1412 82.6272,41.1902 C82.6812,41.2392 82.7422,41.2882 82.8142,41.3372 C82.9182,41.4052 83.0242,41.4602 83.1272,41.4992 C83.2302,41.5402 83.3402,41.5572 83.4562,41.5572 C83.5582,41.5572 83.6492,41.5462 83.7192,41.5242 C83.7922,41.4992 83.8462,41.4682 83.8892,41.4292 C83.9322,41.3892 83.9592,41.3432 83.9772,41.2922 C83.9962,41.2392 84.0052,41.1842 84.0052,41.1262 C84.0052,41.0632 83.9802,41.0052 83.9322,40.9542 C83.8842,40.9032 83.8222,40.8602 83.7532,40.8192 C83.6822,40.7802 83.6072,40.7472 83.5312,40.7202 C83.4562,40.6902 83.3882,40.6672 83.3342,40.6492 C83.0852,40.5612 82.8662,40.4682 82.6812,40.3662 C82.4932,40.2682 82.3382,40.1552 82.2142,40.0322 C82.0902,39.9092 81.9952,39.7722 81.9342,39.6262 C81.8702,39.4772 81.8402,39.3132 81.8402,39.1322 C81.8402,38.9362 81.8802,38.7612 81.9562,38.6062 C82.0352,38.4482 82.1472,38.3132 82.2892,38.2022 C82.4322,38.0912 82.6082,38.0042 82.8112,37.9422 C83.0122,37.8822 83.2392,37.8502 83.4922,37.8502 C83.6792,37.8502 83.8622,37.8742 84.0352,37.9152 C84.2082,37.9582 84.3782,38.0242 84.5452,38.1192 C84.6142,38.1592 84.6812,38.2042 84.7452,38.2482 C84.8082,38.2922 84.8642,38.3332 84.9122,38.3762 C84.9582,38.4172 84.9972,38.4562 85.0242,38.4952 C85.0522,38.5322 85.0672,38.5632 85.0672,38.5912 C85.0672,38.6182 85.0612,38.6432 85.0462,38.6652 C85.0342,38.6882 85.0122,38.7142 84.9852,38.7432 L84.5112,39.2512 C84.4752,39.2842 84.4392,39.3042 84.4052,39.3042 C84.3752,39.3042 84.3502,39.2922 84.3262,39.2782 C84.3022,39.2612 84.2742,39.2392 84.2472,39.2162 L84.2172,39.1902 C84.1772,39.1552 84.1322,39.1202 84.0812,39.0812 C84.0292,39.0442 83.9742,39.0112 83.9172,38.9792 C83.8582,38.9502 83.7982,38.9252 83.7342,38.9052 C83.6712,38.8872 83.6032,38.8762 83.5372,38.8762 C83.4702,38.8762 83.4032,38.8822 83.3452,38.8932 C83.2852,38.9052 83.2302,38.9232 83.1842,38.9482 C83.1392,38.9732 83.1062,39.0052 83.0792,39.0462 C83.0522,39.0872 83.0372,39.1362 83.0372,39.1922 C83.0372,39.2512 83.0522,39.3042 83.0822,39.3452 C83.1092,39.3882 83.1552,39.4272 83.2122,39.4622 C83.2692,39.4992 83.3432,39.5322 83.4282,39.5652 C83.5132,39.5962 83.6132,39.6322 83.7282,39.6692 C83.9472,39.7432 84.1502,39.8172 84.3352,39.8972 C84.5202,39.9772 84.6812,40.0712 84.8142,40.1792 C84.9492,40.2882 85.0542,40.4192 85.1312,40.5712 C85.2062,40.7212 85.2432,40.9032 85.2432,41.1202 C85.2432,41.3482 85.1972,41.5542 85.1032,41.7412 C85.0122,41.9272 84.8822,42.0832 84.7202,42.2142 C84.5572,42.3452 84.3662,42.4462 84.1472,42.5182 C83.9282,42.5892 83.6922,42.6262 83.4372,42.6262 C83.2002,42.6262 82.9672,42.5832 82.7352,42.4972 C82.5062,42.4132 82.2922,42.2982 82.0932,42.1552 C82.0112,42.0952 81.9402,42.0342 81.8832,41.9752 C81.8252,41.9172 81.7792,41.8722 81.7462,41.8372 L81.7372,41.8272 C81.7372,41.8232 81.7342,41.8192 81.7312,41.8192 C81.7312,41.8192 81.7282,41.8172 81.7242,41.8152 C81.7242,41.8092 81.7212,41.8072 81.7192,41.8072 C81.7162,41.8072 81.7162,41.8042 81.7132,41.8022 C81.6642,41.7512 81.6432,41.7102 81.6432,41.6772 C81.6432,41.6432 81.6642,41.6022 81.7132,41.5572 L82.2502,41.0462 C82.2962,41.0142 82.3292,40.9992 82.3562,40.9992 C82.3742,40.9992 82.3952,41.0052 82.4172,41.0162 C82.4352,41.0322 82.4632,41.0502 82.4902,41.0752" id="Fill-32"></path>
                </g>
            </g>
        </g>
    </g>
</svg>