<?xml version="1.0" encoding="UTF-8" standalone="no"?>
<svg width="32px" height="32px" viewBox="0 0 32 32" version="1.1" xmlns="http://www.w3.org/2000/svg" xmlns:xlink="http://www.w3.org/1999/xlink" xmlns:sketch="http://www.bohemiancoding.com/sketch/ns">
    <!-- Generator: Sketch 3.3 (11970) - http://www.bohemiancoding.com/sketch -->
    <title>Fill 57 + Fill 59</title>
    <desc>Created with Sketch.</desc>
    <defs></defs>
    <g id="Page-1" stroke="none" stroke-width="1" fill="none" fill-rule="evenodd" sketch:type="MSPage">
        <g id="Group" sketch:type="MSLayerGroup" fill="#3F4348">
            <g id="Fill-57-+-Fill-59" sketch:type="MSShapeGroup">
                <path d="M13.803965,13.4431968 C13.7964356,14.637236 14.7677298,15.6122949 15.974318,15.6198243 C17.183416,15.6273537 18.1685141,14.663589 18.1747886,13.4708047 C18.1835729,12.2755106 17.2110239,11.2991968 16.0019258,11.2941772 C14.7953376,11.2853929 13.8102396,12.2491576 13.803965,13.4431968" id="Fill-57"></path>
                <path d="M23.5112157,18.9038431 L22.1766275,17.3283137 L18.105098,25.9068235 L16.9047843,25.8917647 L17.715451,21.9745882 C17.7267451,20.4649412 17.2787451,19.2407843 15.7534118,19.2307451 C14.2261961,19.2207059 13.766902,20.441098 13.7549804,21.9501176 L14.5066667,25.8792157 L13.12,25.8610196 L9.35529412,17.2486275 L7.99937255,18.8084706 L6.27890196,17.3239216 L15.8500392,5.62133333 L25.2517647,17.4412549 L23.5112157,18.9038431 Z M15.7647059,0 C7.05756863,0 0,7.05819608 0,15.7647059 C0,24.4712157 7.05756863,31.5294118 15.7647059,31.5294118 C24.4712157,31.5294118 31.5294118,24.4712157 31.5294118,15.7647059 C31.5294118,7.05819608 24.4712157,0 15.7647059,0 L15.7647059,0 Z" id="Fill-59"></path>
            </g>
        </g>
    </g>
</svg>